<?xml version="1.0" standalone="no"?>
<!DOCTYPE svg PUBLIC "-//W3C//DTD SVG 20010904//EN"
 "http://www.w3.org/TR/2001/REC-SVG-20010904/DTD/svg10.dtd">
<svg version="1.0" xmlns="http://www.w3.org/2000/svg"
 width="191.000000pt" height="191.000000pt" viewBox="0 0 191.000000 191.000000"
 preserveAspectRatio="xMidYMid meet">
<metadata>
Created by potrace 1.14, written by Peter Selinger 2001-2017
</metadata>
<g transform="translate(0.000000,191.000000) scale(0.100000,-0.100000)"
fill="#000000" stroke="none">
<path d="M596 1553 c-3 -3 -119 -11 -178 -12 -20 -1 -44 -8 -53 -17 -12 -13
-19 -14 -28 -5 -6 6 -39 11 -74 11 -56 0 -65 -3 -73 -22 -18 -42 -90 -318 -90
-344 0 -14 -6 -32 -14 -40 -8 -8 -13 -22 -12 -32 2 -9 6 -42 9 -72 6 -56 20
-177 22 -195 1 -5 -4 -20 -12 -32 -10 -17 -14 -74 -16 -213 -3 -232 -8 -222
125 -226 78 -3 101 1 150 20 32 13 61 20 64 15 13 -22 82 -46 129 -46 49 0
102 18 118 41 5 8 11 6 20 -6 23 -30 99 -44 159 -29 63 15 57 14 233 12 77 -2
147 0 157 4 9 4 19 17 22 31 5 17 13 24 32 24 17 0 40 15 71 48 l45 48 33 -33
c36 -36 61 -41 105 -18 37 19 58 60 53 101 -3 27 0 33 23 38 15 4 50 31 78 60
65 67 83 74 97 39 30 -79 89 -45 109 61 11 60 11 69 -9 108 -17 36 -31 48 -90
76 -68 33 -69 33 -69 74 -1 26 -8 48 -21 62 -11 11 -24 40 -29 63 -9 38 -7 45
24 88 38 55 55 129 33 150 -32 29 -144 38 -189 15 -8 -4 -41 -2 -73 4 -52 9
-57 13 -52 31 14 44 10 60 -17 73 -37 18 -83 -4 -121 -58 -16 -22 -33 -40 -38
-40 -5 0 -14 -11 -19 -25 -5 -14 -14 -25 -20 -25 -6 0 -29 38 -51 84 -24 51
-46 86 -58 89 -10 2 -80 5 -157 6 -76 1 -155 4 -174 7 -41 5 -170 10 -174 7z
m-88 -438 c-16 -36 -31 -18 -19 23 1 1 8 2 16 2 12 0 13 -4 3 -25z"/>
</g>
</svg>
